<svg width="25" height="26" viewBox="0 0 25 26" fill="none" xmlns="http://www.w3.org/2000/svg">
<path d="M23.5576 0.930447C23.9234 0.930447 24.2368 1.06107 24.4981 1.32231C24.7593 1.58355 24.8899 1.89703 24.8899 2.26277V23.674C24.8899 24.0397 24.7593 24.3532 24.4981 24.6145C24.2368 24.8757 23.9234 25.0063 23.5576 25.0063H17.4289V15.6801H20.5481L21.0184 12.0436H17.4289V9.72378C17.4289 9.13861 17.5491 8.69972 17.7894 8.40714C18.0402 8.11455 18.5209 7.96825 19.2315 7.96825L21.1438 7.95258V4.70798C20.4854 4.61393 19.5554 4.56691 18.3537 4.56691C16.9326 4.56691 15.7936 4.98489 14.9367 5.82086C14.0903 6.65683 13.6671 7.83763 13.6671 9.36327V12.0436H10.5322V15.6801H13.6671V25.0063H2.14639C1.78066 25.0063 1.46717 24.8757 1.20593 24.6145C0.94469 24.3532 0.81407 24.0397 0.81407 23.674V2.26277C0.81407 1.89703 0.94469 1.58355 1.20593 1.32231C1.46717 1.06107 1.78066 0.930447 2.14639 0.930447H23.5576Z" fill="#78AD1A"/>
</svg>
