<svg width="25" height="26" viewBox="0 0 25 26" fill="none" xmlns="http://www.w3.org/2000/svg">
<path d="M14.9224 15.8055C15.7061 15.0217 16.0979 14.076 16.0979 12.9684C16.0979 11.8607 15.7061 10.915 14.9224 10.1313C14.1386 9.3476 13.193 8.95574 12.0853 8.95574C10.9776 8.95574 10.0319 9.3476 9.24823 10.1313C8.46451 10.915 8.07265 11.8607 8.07265 12.9684C8.07265 14.076 8.46451 15.0217 9.24823 15.8055C10.0319 16.5892 10.9776 16.981 12.0853 16.981C13.193 16.981 14.1386 16.5892 14.9224 15.8055ZM16.4585 8.59523C17.6602 9.79693 18.261 11.2547 18.261 12.9684C18.261 14.6821 17.6602 16.1398 16.4585 17.3415C15.2567 18.5432 13.799 19.1441 12.0853 19.1441C10.3716 19.1441 8.91384 18.5432 7.71214 17.3415C6.51043 16.1398 5.90958 14.6821 5.90958 12.9684C5.90958 11.2547 6.51043 9.79693 7.71214 8.59523C8.91384 7.39352 10.3716 6.79267 12.0853 6.79267C13.799 6.79267 15.2567 7.39352 16.4585 8.59523ZM19.5306 5.52305C19.8128 5.80519 19.9538 6.1448 19.9538 6.54188C19.9538 6.93897 19.8128 7.27858 19.5306 7.56072C19.2485 7.84286 18.9089 7.98393 18.5118 7.98393C18.1147 7.98393 17.7751 7.84286 17.493 7.56072C17.2108 7.27858 17.0698 6.93897 17.0698 6.54188C17.0698 6.1448 17.2108 5.80519 17.493 5.52305C17.7751 5.24091 18.1147 5.09984 18.5118 5.09984C18.9089 5.09984 19.2485 5.24091 19.5306 5.52305ZM13.2765 3.09352C12.5555 3.09352 12.1584 3.09352 12.0853 3.09352C12.0121 3.09352 11.6098 3.09352 10.8784 3.09352C10.1573 3.08306 9.60874 3.08306 9.23255 3.09352C8.85637 3.09352 8.34956 3.10919 7.71214 3.14054C7.08516 3.16144 6.54701 3.21368 6.09767 3.29728C5.65879 3.37043 5.28783 3.46447 4.98479 3.57942C4.46231 3.78841 4.00253 4.09145 3.60544 4.48854C3.20836 4.88562 2.90532 5.3454 2.69633 5.86788C2.58138 6.17092 2.48211 6.54711 2.39852 6.99644C2.32537 7.43532 2.27312 7.97348 2.24177 8.6109C2.22087 9.23788 2.2052 9.73946 2.19475 10.1156C2.19475 10.4918 2.19475 11.0457 2.19475 11.7771C2.2052 12.4982 2.21042 12.8952 2.21042 12.9684C2.21042 13.0415 2.2052 13.4438 2.19475 14.1753C2.19475 14.8963 2.19475 15.4449 2.19475 15.8211C2.2052 16.1973 2.22087 16.7041 2.24177 17.3415C2.27312 17.9685 2.32537 18.5067 2.39852 18.956C2.48211 19.3949 2.58138 19.7658 2.69633 20.0689C2.90532 20.5914 3.20836 21.0511 3.60544 21.4482C4.00253 21.8453 4.46231 22.1484 4.98479 22.3573C5.28783 22.4723 5.65879 22.5716 6.09767 22.6552C6.54701 22.7283 7.08516 22.7806 7.71214 22.8119C8.34956 22.8328 8.85637 22.8485 9.23255 22.8589C9.60874 22.8589 10.1573 22.8589 10.8784 22.8589C11.6098 22.8485 12.0121 22.8433 12.0853 22.8433C12.1584 22.8433 12.5555 22.8485 13.2765 22.8589C14.008 22.8589 14.5618 22.8589 14.938 22.8589C15.3142 22.8485 15.8158 22.8328 16.4428 22.8119C17.0802 22.7806 17.6184 22.7283 18.0572 22.6552C18.5066 22.5716 18.8828 22.4723 19.1858 22.3573C19.7083 22.1484 20.1681 21.8453 20.5651 21.4482C20.9622 21.0511 21.2653 20.5914 21.4743 20.0689C21.5892 19.7658 21.6832 19.3949 21.7564 18.956C21.84 18.5067 21.8922 17.9685 21.9131 17.3415C21.9445 16.7041 21.9602 16.1973 21.9602 15.8211C21.9706 15.4449 21.9706 14.8963 21.9602 14.1753C21.9602 13.4438 21.9602 13.0415 21.9602 12.9684C21.9602 12.8952 21.9602 12.4982 21.9602 11.7771C21.9706 11.0457 21.9706 10.4918 21.9602 10.1156C21.9602 9.73946 21.9445 9.23788 21.9131 8.6109C21.8922 7.97348 21.84 7.43532 21.7564 6.99644C21.6832 6.54711 21.5892 6.17092 21.4743 5.86788C21.2653 5.3454 20.9622 4.88562 20.5651 4.48854C20.1681 4.09145 19.7083 3.78841 19.1858 3.57942C18.8828 3.46447 18.5066 3.37043 18.0572 3.29728C17.6184 3.21368 17.0802 3.16144 16.4428 3.14054C15.8158 3.10919 15.3142 3.09352 14.938 3.09352C14.5618 3.08306 14.008 3.08306 13.2765 3.09352ZM24.0449 7.9996C24.0971 8.91917 24.1232 10.5754 24.1232 12.9684C24.1232 15.3613 24.0971 17.0176 24.0449 17.9372C23.9404 20.1107 23.2925 21.7931 22.1012 22.9843C20.91 24.1756 19.2276 24.8235 17.0541 24.928C16.1345 24.9802 14.4783 25.0063 12.0853 25.0063C9.69234 25.0063 8.03607 24.9802 7.11651 24.928C4.94299 24.8235 3.26061 24.1756 2.06935 22.9843C0.878099 21.7931 0.230224 20.1107 0.125728 17.9372C0.0734796 17.0176 0.0473557 15.3613 0.0473557 12.9684C0.0473557 10.5754 0.0734796 8.91917 0.125728 7.9996C0.230224 5.82608 0.878099 4.1437 2.06935 2.95244C3.26061 1.76119 4.94299 1.11332 7.11651 1.00882C8.03607 0.956572 9.69234 0.930447 12.0853 0.930447C14.4783 0.930447 16.1345 0.956572 17.0541 1.00882C19.2276 1.11332 20.91 1.76119 22.1012 2.95244C23.2925 4.1437 23.9404 5.82608 24.0449 7.9996Z" fill="#78AD1A"/>
</svg>
