<svg width="26" height="26" viewBox="0 0 26 26" fill="none" xmlns="http://www.w3.org/2000/svg">
<path d="M4.66111 21.0877H8.2819V10.2097H4.66111V21.0877ZM8.51702 6.85537C8.50657 6.31199 8.31847 5.86266 7.95274 5.50737C7.587 5.15209 7.1011 4.97444 6.49502 4.97444C5.88894 4.97444 5.39259 5.15209 5.00595 5.50737C4.62976 5.86266 4.44167 6.31199 4.44167 6.85537C4.44167 7.3883 4.62454 7.83763 4.99028 8.20337C5.36646 8.55866 5.85237 8.7363 6.448 8.7363H6.46367C7.0802 8.7363 7.57655 8.55866 7.95274 8.20337C8.32892 7.83763 8.51702 7.3883 8.51702 6.85537ZM17.6865 21.0877H21.3073V14.8493C21.3073 13.2401 20.9259 12.0227 20.1631 11.1972C19.4003 10.3717 18.3919 9.9589 17.1379 9.9589C15.7168 9.9589 14.6248 10.5702 13.862 11.7928H13.8933V10.2097H10.2725C10.3039 10.8994 10.3039 14.5254 10.2725 21.0877H13.8933V15.0061C13.8933 14.609 13.9299 14.3164 14.0031 14.1283C14.1598 13.7626 14.3949 13.4543 14.7084 13.2035C15.0219 12.9423 15.4085 12.8116 15.8683 12.8116C17.0805 12.8116 17.6865 13.6319 17.6865 15.2725V21.0877ZM25.0222 5.44467V20.4921C25.0222 21.7356 24.578 22.7962 23.6898 23.674C22.8121 24.5622 21.7514 25.0063 20.5079 25.0063H5.46051C4.21701 25.0063 3.15115 24.5622 2.26293 23.674C1.38516 22.7962 0.946281 21.7356 0.946281 20.4921V5.44467C0.946281 4.20117 1.38516 3.14054 2.26293 2.26277C3.15115 1.37456 4.21701 0.930447 5.46051 0.930447H20.5079C21.7514 0.930447 22.8121 1.37456 23.6898 2.26277C24.578 3.14054 25.0222 4.20117 25.0222 5.44467Z" fill="#78AD1A"/>
</svg>
