<svg width="25" height="26" viewBox="0 0 25 26" fill="none" xmlns="http://www.w3.org/2000/svg">
<path d="M20.4094 8.48551C19.8242 8.74675 19.192 8.92439 18.5128 9.01844C19.2233 8.60045 19.7093 7.98915 19.9705 7.18453C19.2913 7.58162 18.5911 7.84808 17.8701 7.98393C17.2327 7.29425 16.4333 6.94942 15.4719 6.94942C14.5628 6.94942 13.7843 7.27335 13.1365 7.92123C12.499 8.55865 12.1803 9.33192 12.1803 10.241C12.1803 10.5441 12.2064 10.7949 12.2587 10.9934C10.9107 10.9203 9.64629 10.5807 8.46548 9.97457C7.28468 9.3685 6.28152 8.55865 5.456 7.54504C5.15296 8.06752 5.00144 8.62135 5.00144 9.20653C5.00144 10.3978 5.4769 11.3121 6.42781 11.9495C5.93668 11.9391 5.4142 11.8033 4.86037 11.542V11.5734C4.86037 12.3571 5.12161 13.0572 5.64409 13.6737C6.16657 14.2798 6.80922 14.656 7.57204 14.8023C7.269 14.8859 7.00254 14.9277 6.77265 14.9277C6.6368 14.9277 6.43304 14.9068 6.16135 14.865C6.38079 15.5233 6.76742 16.0667 7.32125 16.4951C7.88553 16.9236 8.52296 17.143 9.23353 17.1534C8.02138 18.0939 6.6577 18.5641 5.14251 18.5641C4.87082 18.5641 4.60958 18.5485 4.35879 18.5171C5.90533 19.4994 7.58772 19.9905 9.40595 19.9905C10.5763 19.9905 11.6735 19.8076 12.6976 19.4419C13.7216 19.0657 14.5994 18.5694 15.3309 17.9528C16.0623 17.3259 16.6893 16.6101 17.2118 15.8055C17.7447 14.9904 18.1366 14.144 18.3874 13.2662C18.6486 12.378 18.7792 11.495 18.7792 10.6172C18.7792 10.4291 18.774 10.2881 18.7636 10.194C19.4219 9.72378 19.9705 9.15428 20.4094 8.48551ZM24.422 5.44467V20.4921C24.422 21.7356 23.9779 22.7962 23.0897 23.674C22.2119 24.5622 21.1513 25.0063 19.9078 25.0063H4.86037C3.61687 25.0063 2.55101 24.5622 1.6628 23.674C0.785029 22.7962 0.346146 21.7356 0.346146 20.4921V5.44467C0.346146 4.20117 0.785029 3.14054 1.6628 2.26277C2.55101 1.37456 3.61687 0.930447 4.86037 0.930447H19.9078C21.1513 0.930447 22.2119 1.37456 23.0897 2.26277C23.9779 3.14054 24.422 4.20117 24.422 5.44467Z" fill="#78AD1A"/>
</svg>
