<svg width="25" height="26" viewBox="0 0 25 26" fill="none" xmlns="http://www.w3.org/2000/svg">
<path d="M15.2219 14.959C15.6294 14.447 15.9011 14.191 16.0369 14.191C16.1728 14.191 16.6796 14.4209 17.5573 14.8807C18.4456 15.3404 18.9158 15.6174 18.968 15.7114C18.9889 15.7637 18.9994 15.842 18.9994 15.9465C18.9994 16.2914 18.9106 16.6884 18.7329 17.1378C18.5657 17.5453 18.1948 17.8901 17.62 18.1723C17.0453 18.444 16.5124 18.5798 16.0213 18.5798C15.4256 18.5798 14.4329 18.2559 13.0431 17.608C12.0191 17.1378 11.1308 16.5212 10.3785 15.7584C9.6261 14.9956 8.85283 14.029 8.05866 12.8587C7.30629 11.7406 6.93533 10.7269 6.94578 9.81783V9.69244C6.97713 8.74152 7.36376 7.916 8.10569 7.21588C8.35648 6.98599 8.62817 6.87105 8.92075 6.87105C8.98345 6.87105 9.0775 6.88149 9.20289 6.90239C9.32829 6.91284 9.42756 6.91807 9.50071 6.91807C9.69925 6.91807 9.83509 6.95464 9.90824 7.02779C9.99184 7.09049 10.0754 7.23156 10.159 7.451C10.2426 7.65999 10.415 8.11977 10.6763 8.83034C10.9375 9.54092 11.0681 9.93278 11.0681 10.0059C11.0681 10.2254 10.8853 10.5284 10.5195 10.915C10.1643 11.2912 9.98661 11.5316 9.98661 11.6361C9.98661 11.7092 10.0127 11.7876 10.065 11.8712C10.4203 12.634 10.9532 13.3498 11.6638 14.0186C12.249 14.5724 13.0379 15.1001 14.0306 15.6017C14.156 15.6748 14.2709 15.7114 14.3754 15.7114C14.5322 15.7114 14.8143 15.4606 15.2219 14.959ZM12.855 22.4984C14.1821 22.4984 15.4518 22.2372 16.6639 21.7147C17.8865 21.1922 18.9367 20.4921 19.8145 19.6143C20.6922 18.7366 21.3924 17.6916 21.9148 16.4795C22.4373 15.2568 22.6985 13.982 22.6985 12.6549C22.6985 11.3278 22.4373 10.0582 21.9148 8.84602C21.3924 7.62342 20.6922 6.57323 19.8145 5.69546C18.9367 4.8177 17.8865 4.11758 16.6639 3.5951C15.4518 3.07261 14.1821 2.81137 12.855 2.81137C11.5279 2.81137 10.2531 3.07261 9.03047 3.5951C7.81832 4.11758 6.77336 4.8177 5.8956 5.69546C5.01783 6.57323 4.31771 7.62342 3.79523 8.84602C3.27275 10.0582 3.01151 11.3278 3.01151 12.6549C3.01151 14.7762 3.63848 16.6989 4.89243 18.4231L3.65416 22.0752L7.44736 20.8683C9.0984 21.955 10.901 22.4984 12.855 22.4984ZM8.26243 1.77687C9.72537 1.14989 11.2562 0.8364 12.855 0.8364C14.4538 0.8364 15.9795 1.14989 17.432 1.77687C18.8949 2.40384 20.1541 3.24503 21.2095 4.30044C22.2649 5.35585 23.1061 6.61503 23.7331 8.07797C24.36 9.53047 24.6735 11.0561 24.6735 12.6549C24.6735 14.2537 24.36 15.7846 23.7331 17.2475C23.1061 18.7 22.2649 19.9539 21.2095 21.0094C20.1541 22.0648 18.8949 22.906 17.432 23.5329C15.9795 24.1599 14.4538 24.4734 12.855 24.4734C10.8174 24.4734 8.9103 23.9823 7.13387 23L0.597649 25.1004L2.72937 18.7522C1.60081 16.8922 1.03653 14.8598 1.03653 12.6549C1.03653 11.0561 1.35002 9.53047 1.977 8.07797C2.60397 6.61503 3.44516 5.35585 4.50057 4.30044C5.55598 3.24503 6.80994 2.40384 8.26243 1.77687Z" fill="#78AD1A"/>
</svg>
