<svg width="30" height="20" viewBox="0 0 30 20" fill="none" xmlns="http://www.w3.org/2000/svg">
<path d="M12.1417 13.6048L19.7281 9.68625L12.1417 5.72062V13.6048ZM15.0415 0.0935151C16.797 0.0935151 18.4898 0.119639 20.12 0.171886C21.7606 0.213685 22.9623 0.260708 23.7251 0.312957L24.8693 0.375654C24.8798 0.375654 24.9686 0.386103 25.1358 0.407002C25.303 0.417452 25.4231 0.433127 25.4963 0.454025C25.5694 0.464475 25.6896 0.485374 25.8568 0.516723C26.0345 0.548072 26.186 0.58987 26.3114 0.642119C26.4368 0.694367 26.5831 0.762289 26.7502 0.845885C26.9174 0.929483 27.0794 1.03398 27.2362 1.15937C27.3929 1.27432 27.5444 1.41016 27.6907 1.56691C27.7534 1.62961 27.8318 1.72888 27.9258 1.86472C28.0303 1.99012 28.1818 2.29315 28.3804 2.77384C28.5894 3.25452 28.7304 3.78222 28.8036 4.35695C28.8872 5.02573 28.9499 5.74152 28.9917 6.50434C29.0439 7.25671 29.0753 7.84712 29.0857 8.27555V8.90253V11.0342C29.0962 12.5494 29.0021 14.0646 28.8036 15.5798C28.7304 16.1545 28.5998 16.677 28.4117 17.1473C28.2236 17.607 28.0564 17.9258 27.9102 18.1034L27.6907 18.3699C27.5444 18.5266 27.3929 18.6677 27.2362 18.7931C27.0794 18.908 26.9174 19.0073 26.7502 19.0909C26.5831 19.164 26.4368 19.2267 26.3114 19.279C26.186 19.3312 26.0345 19.373 25.8568 19.4044C25.6896 19.4357 25.5642 19.4618 25.4806 19.4827C25.4075 19.4932 25.2873 19.5089 25.1201 19.5298C24.9634 19.5402 24.8798 19.5454 24.8693 19.5454C22.2465 19.744 18.9705 19.8433 15.0415 19.8433C12.8784 19.8224 10.9975 19.791 9.39869 19.7492C7.81035 19.697 6.76539 19.6552 6.26381 19.6238L5.49576 19.5611L4.93149 19.4984C4.5553 19.4462 4.26794 19.3939 4.06939 19.3417C3.8813 19.2894 3.61484 19.1797 3.27 19.0125C2.93561 18.8453 2.64302 18.6311 2.39223 18.3699C2.32954 18.3072 2.24594 18.2131 2.14144 18.0877C2.0474 17.9519 1.89588 17.6436 1.68689 17.1629C1.48834 16.6823 1.3525 16.1545 1.27935 15.5798C1.19575 14.911 1.12783 14.2005 1.07558 13.4481C1.03379 12.6853 1.00766 12.0897 0.997212 11.6612V11.0342V8.90253C0.986763 7.38733 1.08081 5.87214 1.27935 4.35695C1.3525 3.78222 1.48312 3.26497 1.67121 2.80519C1.8593 2.33495 2.0265 2.01102 2.17279 1.83337L2.39223 1.56691C2.53853 1.41016 2.69005 1.27432 2.84679 1.15937C3.00354 1.03398 3.1655 0.929483 3.3327 0.845885C3.49989 0.762289 3.64619 0.694367 3.77158 0.642119C3.89698 0.58987 4.04327 0.548072 4.21046 0.516723C4.38811 0.485374 4.5135 0.464475 4.58665 0.454025C4.6598 0.433127 4.77997 0.417452 4.94716 0.407002C5.11435 0.386103 5.20318 0.375654 5.21363 0.375654C7.83648 0.187561 11.1124 0.0935151 15.0415 0.0935151Z" fill="#78AD1A"/>
</svg>
